<?xml version="1.0" encoding="UTF-8"?>
<!DOCTYPE svg PUBLIC "-//W3C//DTD SVG 1.1//EN" "http://www.w3.org/Graphics/SVG/1.1/DTD/svg11.dtd">
<!-- Creator: CorelDRAW 2019 (64 Bit) -->
<svg xmlns="http://www.w3.org/2000/svg" xml:space="preserve" width="222.941mm" height="66.2358mm" version="1.1" style="shape-rendering:geometricPrecision; text-rendering:geometricPrecision; image-rendering:optimizeQuality; fill-rule:evenodd; clip-rule:evenodd"
viewBox="0 0 22293 6623.27"
 xmlns:xlink="http://www.w3.org/1999/xlink">
 <defs>
  <style type="text/css">
   <![CDATA[
    .str2 {stroke:black;stroke-width:20;stroke-miterlimit:22.9256}
    .str0 {stroke:black;stroke-width:20;stroke-miterlimit:22.9256}
    .str1 {stroke:#0095DA;stroke-width:20;stroke-miterlimit:22.9256}
    .str4 {stroke:white;stroke-width:20;stroke-miterlimit:22.9256}
    .str5 {stroke:black;stroke-width:7.62;stroke-miterlimit:22.9256}
    .str3 {stroke:white;stroke-width:7.62;stroke-miterlimit:22.9256}
    .fil2 {fill:black}
    .fil3 {fill:#0095DA}
    .fil5 {fill:#605E5D}
    .fil0 {fill:white}
    .fil7 {fill:black;fill-rule:nonzero}
    .fil6 {fill:#0095DA;fill-rule:nonzero}
    .fil4 {fill:#605E5D;fill-rule:nonzero}
    .fil1 {fill:url(#id0)}
   ]]>
  </style>
  <linearGradient id="id0" gradientUnits="userSpaceOnUse" x1="8856.69" y1="801.36" x2="13140.37" y2="5821.9">
   <stop offset="0" style="stop-opacity:1; stop-color:#E6E6E6"/>
   <stop offset="1" style="stop-opacity:1; stop-color:white"/>
  </linearGradient>
 </defs>
 <g id="Camada_x0020_1">
  <metadata id="CorelCorpID_0Corel-Layer"/>
  <g id="_1564000657664">
   <path class="fil0" d="M1305.16 0l19682.68 0c720.7,0 1305.16,481.38 1305.16,1074.98l0 4473.31c0,593.59 -584.46,1074.97 -1305.16,1074.97l-19682.68 0.01c-720.69,-0.01 -1305.15,-481.39 -1305.15,-1074.99l-0.01 -4473.3c0.01,-593.6 584.47,-1074.98 1305.17,-1074.98z"/>
   <circle class="fil1" cx="10998.53" cy="3311.63" r="3299.84"/>
   <g>
    <path class="fil2 str0" d="M11195.45 1312.28c1120.04,0 2028,907.97 2028,2028 0,1120.04 -907.97,2028 -2028,2028 -1120.03,0 -2027.99,-907.97 -2027.99,-2028 0,-1120.04 907.97,-2028 2027.99,-2028zm0 502.3c842.63,0 1525.71,683.08 1525.71,1525.71 0,842.63 -683.08,1525.71 -1525.71,1525.71 -842.63,0 -1525.71,-683.08 -1525.71,-1525.71 0,-842.63 683.08,-1525.71 1525.71,-1525.71z"/>
    <path class="fil3 str1" d="M10299.31 874c842.63,0 1525.71,683.08 1525.71,1525.71 0,842.63 -683.08,1525.71 -1525.71,1525.71 -842.63,0 -1525.71,-683.08 -1525.71,-1525.71 0,-842.63 683.08,-1525.71 1525.71,-1525.71zm0 503.43c564.59,0 1022.28,457.69 1022.28,1022.28 0,564.58 -457.69,1022.27 -1022.28,1022.27 -564.58,0 -1022.27,-457.69 -1022.27,-1022.27 0,-564.59 457.69,-1022.28 1022.27,-1022.28z"/>
    <path class="fil2 str2" d="M11377.83 1320.4c165.81,165.72 294.43,369.99 370.16,597.49 -194.6,-75.53 -401.17,-109.74 -609.59,-102.15 -138.51,-190.87 -334.18,-325.76 -576.44,-402.22 244.31,-79.84 557.83,-116.13 815.87,-93.13z"/>
   </g>
   <path class="fil4" d="M10364.39 6042.4l-32.17 0c-1.27,-6.63 -2.54,-19.19 -3.81,-37.61 -14.32,29 -38.74,43.54 -73.24,43.54 -23.42,0 -41.41,-6.21 -53.97,-18.63 -12.56,-12.42 -18.84,-27.38 -18.84,-44.73 0,-21.17 8.96,-38.52 26.88,-52.14 17.92,-13.55 48.4,-20.39 91.44,-20.39 5.79,0 15.03,0.28 27.73,0.84 0,-16.51 -1.27,-28.5 -3.81,-35.84 -2.54,-7.34 -7.97,-13.26 -16.23,-17.64 -8.25,-4.44 -19.12,-6.63 -32.6,-6.63 -32.94,0 -52.06,12.56 -57.43,37.68l-30.05 -5.15c7.26,-38.6 38.03,-57.93 92.14,-57.93 28.79,0 49.18,6.35 61.24,19.12 12.07,12.77 18.07,34.86 18.07,66.25l0 88.76c0,14.75 1.55,28.22 4.65,40.5zm-35.98 -104.14c-13.27,-0.85 -23.28,-1.27 -30.2,-1.27 -25.68,0 -45.58,4.23 -59.83,12.63 -14.18,8.47 -21.31,20.74 -21.31,36.9 0,10.16 3.81,18.91 11.5,26.04 7.62,7.19 18.7,10.79 33.09,10.79 19.62,0 35.7,-7.13 48.26,-21.31 12.63,-14.25 18.91,-30.9 18.91,-50.09 0,-3.88 -0.14,-8.47 -0.42,-13.69zm112.74 104.14l-32.17 0 0 -282.35 32.17 0 0 282.35zm219.07 -241.29l0 25.83c-14.6,0 -24.48,1.69 -29.49,5.15 -5.01,3.45 -8.4,9.66 -10.02,18.69 13.34,15.45 20.04,32.25 20.04,50.52 0,19.05 -7.2,35.42 -21.66,49.04 -14.47,13.68 -33.94,20.53 -58.35,20.53 -5.43,0 -10.16,-0.43 -14.18,-1.27 -7.55,-1.48 -12.28,-2.26 -14.18,-2.26 -3.67,0 -8.12,1.83 -13.34,5.5 -5.22,3.6 -7.83,8.33 -7.83,14.04 0,8.26 3.74,13.62 11.29,16.09 7.55,2.47 25.33,4.02 53.27,4.73 23.7,0.7 41.2,2.33 52.49,4.87 11.36,2.54 20.88,8.18 28.72,17 7.83,8.75 11.71,19.47 11.71,32.17 0,39.87 -34.86,59.83 -104.63,59.83 -33.1,0 -57.22,-5.01 -72.39,-15.03 -15.17,-10.08 -22.79,-23.42 -22.79,-40.21 0,-20.32 10.58,-34.29 31.82,-41.91 -13.62,-8.96 -20.39,-20.18 -20.39,-33.73 0,-16.08 9.59,-28.43 28.78,-36.97 -18.06,-14.6 -27.09,-33.02 -27.09,-55.24 0,-20.67 7.69,-37.61 23.07,-50.87 15.31,-13.2 34.08,-19.83 56.16,-19.83 15.67,0 29.85,2.96 42.62,8.89 2.04,-13.62 6.84,-23 14.32,-28.15 7.41,-5.22 18.77,-7.83 34.01,-7.83 1.55,0 4.23,0.14 8.04,0.42zm-98.49 144.77c13.68,0 24.83,-4.23 33.44,-12.7 8.68,-8.54 12.98,-19.54 12.98,-33.02 0,-13.83 -4.51,-25.12 -13.47,-33.87 -8.96,-8.74 -19.83,-13.12 -32.6,-13.12 -12.14,0 -23,4.09 -32.46,12.35 -9.45,8.18 -14.18,19.9 -14.18,35.06 0,13.48 4.24,24.42 12.77,32.81 8.47,8.33 19.62,12.49 33.52,12.49zm-38.88 88.12c-15.1,6.64 -22.65,16.3 -22.65,28.86 0,10.73 6.21,18.98 18.63,24.91 12.42,5.85 28.22,8.82 47.41,8.82 17.78,0 34.08,-2.54 48.9,-7.62 14.81,-5.01 22.22,-13.62 22.22,-25.69 0,-6.49 -2.19,-11.85 -6.56,-16.01 -4.37,-4.16 -10.37,-6.77 -17.99,-7.9 -7.62,-1.06 -20.89,-1.91 -39.79,-2.47 -22.65,-0.57 -39.37,-1.48 -50.17,-2.9zm323.06 8.4l-32.17 0c-1.27,-6.63 -2.54,-19.19 -3.81,-37.61 -14.32,29 -38.74,43.54 -73.24,43.54 -23.42,0 -41.41,-6.21 -53.97,-18.63 -12.56,-12.42 -18.84,-27.38 -18.84,-44.73 0,-21.17 8.96,-38.52 26.88,-52.14 17.92,-13.55 48.4,-20.39 91.44,-20.39 5.79,0 15.03,0.28 27.73,0.84 0,-16.51 -1.27,-28.5 -3.81,-35.84 -2.54,-7.34 -7.97,-13.26 -16.23,-17.64 -8.25,-4.44 -19.12,-6.63 -32.6,-6.63 -32.94,0 -52.06,12.56 -57.43,37.68l-30.05 -5.15c7.26,-38.6 38.03,-57.93 92.14,-57.93 28.79,0 49.18,6.35 61.24,19.12 12.07,12.77 18.07,34.86 18.07,66.25l0 88.76c0,14.75 1.55,28.22 4.65,40.5zm-35.98 -104.14c-13.27,-0.85 -23.28,-1.27 -30.2,-1.27 -25.68,0 -45.58,4.23 -59.83,12.63 -14.18,8.47 -21.31,20.74 -21.31,36.9 0,10.16 3.81,18.91 11.5,26.04 7.62,7.19 18.7,10.79 33.09,10.79 19.62,0 35.7,-7.13 48.26,-21.31 12.63,-14.25 18.91,-30.9 18.91,-50.09 0,-3.88 -0.14,-8.47 -0.42,-13.69zm312.55 -104.56l-60.04 208.69 -26.25 0 -46.85 -154.93 -42.76 154.93 -26.88 0 -62.23 -208.69 32.11 0 45.57 155.77 42.97 -155.77 24.13 0 47.2 156.2 46.71 -156.2 26.32 0zm94.26 214.62c-28.64,0 -51.01,-10.66 -67.09,-31.89 -16.02,-21.24 -24.06,-47.63 -24.06,-79.1 0,-33.3 9.03,-59.9 27.09,-79.72 18.06,-19.9 40.5,-29.85 67.38,-29.85 28.86,0 51.5,10.44 68.16,31.4 16.58,20.88 24.9,46.99 24.9,78.39 0,32.52 -8.96,59.19 -26.88,79.79 -17.92,20.68 -41.06,30.98 -69.5,30.98zm2.54 -26.67c16.51,0 30.34,-6.85 41.56,-20.53 11.15,-13.69 16.72,-35 16.72,-63.93 0,-29 -5.85,-50.09 -17.57,-63.14 -11.71,-13.06 -25.47,-19.62 -41.13,-19.62 -16.16,0 -29.77,6.63 -40.99,19.83 -11.15,13.19 -16.72,34.15 -16.72,62.72 0,30.34 5.57,52 16.72,65.05 11.22,13.06 24.97,19.62 41.41,19.62zm159.03 20.74l-32.17 0 0 -208.69 28.36 0 0 48.68c10.09,-22.86 20.25,-37.68 30.41,-44.45 10.16,-6.77 20.6,-10.16 31.25,-10.16 3.32,0 7.62,0.28 12.85,0.85l0 30.9 -6.64 0c-18.06,0 -33.02,6.63 -44.94,19.97 -11.92,13.33 -18.27,30.83 -19.12,52.49l0 110.41zm261.75 0l-33.65 0 -61.03 -116.05 -45.44 51.71 0 64.35 -32.17 0 0 -282.35 32.17 0 0 180.61 96.94 -106.95 34.72 0 -65.34 72.88 73.8 135.81zm-4.44 -53.69l30.91 -6.42c6.91,26.24 28.71,39.37 65.4,39.37 13.55,0 24.98,-3.04 34.36,-9.1 9.38,-6.14 14.11,-14.68 14.11,-25.76 0,-16.51 -11.92,-26.95 -35.7,-31.39l-44.1 -8.26c-17.21,-3.32 -30.97,-9.74 -41.2,-19.4 -10.23,-9.67 -15.31,-22.44 -15.31,-38.31 0,-17.5 6.98,-32.18 20.88,-43.96 13.97,-11.78 32.74,-17.71 56.38,-17.71 45.36,0 73.37,17.64 84.03,52.85l-29.21 6.42c-8.61,-21.73 -26.32,-32.6 -53.06,-32.6 -13.33,0 -24.27,2.68 -32.81,8.12 -8.53,5.43 -12.77,13.05 -12.77,22.78 0,15.46 10.87,25.12 32.53,29.07l40.64 7.69c42.68,7.69 63.99,28.37 63.99,61.95 0,19.19 -7.9,34.71 -23.78,46.57 -15.87,11.78 -37.04,17.71 -63.35,17.71 -49.53,0 -80.22,-19.9 -91.94,-59.62z"/>
   <path class="fil3" d="M794.39 2336.63l4924.36 0c271.93,0.01 492.45,224.26 492.45,500.8l-0.01 1053.32c0.01,276.52 -220.51,500.77 -492.43,500.77l-4924.37 0.02c-271.91,-0.02 -492.43,-224.27 -492.43,-500.8l-0.01 -1053.33c0.01,-276.52 220.53,-500.77 492.45,-500.77l-0.01 -0.01z"/>
   <path class="fil5" d="M5636.35 2336.61l1432.69 0c224.51,0 406.57,175.67 406.57,392.3l-0.01 1270.34c0.01,216.62 -182.05,392.29 -406.55,392.29l-1432.7 0.01c-224.49,-0.01 -406.55,-175.68 -406.55,-392.31l-0.02 -1270.33c0.02,-216.63 182.08,-392.3 406.58,-392.3z"/>
   <g>
    <polygon class="fil0 str3" points="4518.99,3828.37 4518.99,3623.75 4808.74,3513.6 4518.99,3403.44 4518.99,3198.82 5083.85,3409.02 5085.2,3408.52 5085.2,3409.52 5085.2,3617.69 5085.2,3618.69 5083.85,3618.19 "/>
    <polygon class="fil0 str3" points="1061.98,3403.36 1061.98,3198.74 496.91,3409.02 495.78,3408.59 495.78,3409.43 495.78,3617.76 495.78,3618.6 496.91,3618.18 1061.98,3828.45 1061.98,3623.83 772,3513.59 "/>
   </g>
   <path class="fil6" d="M1642.73 5239.42l0 34.43c-19.47,0 -32.64,2.26 -39.32,6.87 -6.68,4.61 -11.2,12.89 -13.36,24.93 17.78,20.6 26.72,42.99 26.72,67.35 0,25.4 -9.6,47.23 -28.88,65.38 -19.29,18.25 -45.25,27.38 -77.8,27.38 -7.24,0 -13.55,-0.56 -18.91,-1.69 -10.07,-1.98 -16.37,-3.01 -18.91,-3.01 -4.89,0 -10.82,2.44 -17.78,7.33 -6.96,4.8 -10.44,11.1 -10.44,18.72 0,11.01 4.99,18.16 15.05,21.45 10.07,3.3 33.77,5.37 71.03,6.31 31.61,0.94 54.94,3.1 69.99,6.49 15.14,3.38 27.84,10.91 38.28,22.67 10.45,11.66 15.62,25.96 15.62,42.9 0,53.15 -46.47,79.77 -139.5,79.77 -44.12,0 -76.29,-6.68 -96.52,-20.04 -20.22,-13.45 -30.38,-31.23 -30.38,-53.62 0,-27.09 14.11,-45.72 42.42,-55.88 -18.15,-11.95 -27.18,-26.9 -27.18,-44.97 0,-21.44 12.79,-37.91 38.38,-49.29 -24.09,-19.47 -36.13,-44.03 -36.13,-73.66 0,-27.56 10.26,-50.14 30.77,-67.83 20.41,-17.59 45.43,-26.43 74.88,-26.43 20.88,0 39.79,3.95 56.82,11.85 2.73,-18.15 9.12,-30.67 19.09,-37.53 9.88,-6.96 25.03,-10.45 45.35,-10.45 2.07,0 5.64,0.19 10.72,0.57zm-131.31 193.03c18.25,0 33.11,-5.65 44.59,-16.94 11.57,-11.38 17.31,-26.05 17.31,-44.02 0,-18.44 -6.02,-33.49 -17.97,-45.16 -11.95,-11.66 -26.44,-17.49 -43.46,-17.49 -16.18,0 -30.67,5.45 -43.28,16.46 -12.6,10.91 -18.91,26.53 -18.91,46.75 0,17.97 5.65,32.55 17.03,43.75 11.29,11.1 26.15,16.65 44.69,16.65zm-51.84 117.49c-20.13,8.84 -30.2,21.73 -30.2,38.47 0,14.3 8.28,25.31 24.84,33.21 16.56,7.81 37.63,11.76 63.22,11.76 23.7,0 45.43,-3.39 65.19,-10.16 19.75,-6.68 29.63,-18.16 29.63,-34.24 0,-8.66 -2.91,-15.81 -8.75,-21.36 -5.83,-5.55 -13.83,-9.03 -23.98,-10.54 -10.16,-1.41 -27.85,-2.54 -53.06,-3.29 -30.2,-0.75 -52.5,-1.97 -66.89,-3.85zm279.2 -365.27l0 47.98 -46.85 0 0 -47.98 46.85 0zm-2.26 98.21l0 278.26 -42.9 0 0 -278.26 42.9 0zm213.07 248.91l0 34.43c-15.34,1.88 -28.6,2.82 -39.8,2.82 -53.99,0 -80.99,-28.13 -80.99,-84.48l0 -167.81 -49.11 0 0 -33.87 49.11 0 1.69 -70.08 41.2 -3.86 0 73.94 62.09 0 0 33.87 -62.09 0 0 174.87c0,28.69 14.77,42.99 44.41,42.99 9.87,0 21.07,-0.94 33.49,-2.82zm265.09 29.35l-42.9 0 0 -169.23c0,-19.85 -1.22,-34.71 -3.76,-44.68 -2.45,-9.88 -8.38,-18.54 -17.69,-25.78 -9.22,-7.24 -20.04,-10.91 -32.17,-10.91 -22.3,0 -40.93,9.12 -55.98,27.28 -14.95,18.16 -22.48,42.52 -22.48,73l0 150.32 -42.9 0 0 -376.46 42.9 0 0 149c19.66,-39.13 47.79,-58.7 84.29,-58.7 16.37,0 30.95,3.2 43.74,9.69 12.7,6.4 22.49,14.86 29.35,25.3 6.78,10.54 11.39,20.79 13.83,31.05 2.54,10.16 3.77,27.28 3.77,51.17l0 168.95zm305.91 0l-38.94 0 0 -53.06c-19.85,40.64 -49.39,60.96 -88.71,60.96 -28.51,0 -50.9,-9.41 -67.17,-28.13 -16.28,-18.81 -24.37,-45.43 -24.37,-80.05l0 -177.98 42.9 0 0 177.98c0,27.66 5.74,46.66 17.31,57.01 11.57,10.44 24.27,15.61 38.19,15.61 14.02,0 26.72,-3.95 38.1,-11.94 11.39,-7.91 20.89,-19.2 28.41,-33.87 7.62,-14.68 11.39,-30.67 11.39,-48.07l0 -156.72 42.89 0 0 278.26zm107.52 0l-20.89 0 0 -376.46 42.9 0 0 144.49c19.85,-36.13 47.22,-54.19 82.13,-54.19 31.89,0 58.7,12.6 80.24,37.82 21.54,25.21 32.36,61.9 32.36,109.86 0,41.49 -10.63,76.2 -31.8,104.24 -21.16,28.13 -48.73,42.14 -82.69,42.14 -37.81,0 -66.79,-18.06 -87.01,-54.18l-15.24 46.28zm22.01 -109.4c2.07,28.6 10.82,49.39 26.34,62.37 15.52,12.89 31.89,19.38 49.11,19.38 22.01,0 39.79,-9.59 53.34,-28.69 13.45,-19.19 20.22,-45.44 20.22,-78.74 0,-35.94 -6.49,-64.16 -19.57,-84.76 -12.98,-20.51 -31.13,-30.76 -54.28,-30.76 -18.15,0 -34.52,7.34 -49.1,22.01 -14.68,14.68 -23.33,33.68 -26.06,57.01l0 62.18zm318.42 47.89l0 61.52 -61.52 0 0 -61.52 61.52 0zm247.78 -36.13l38.94 6.87c-5.55,30.86 -17.78,55.03 -36.68,72.53 -19.01,17.4 -42.62,26.15 -70.94,26.15 -38.47,0 -67.82,-14.2 -87.95,-42.52 -20.14,-28.32 -30.2,-62.93 -30.2,-103.86 0,-42.33 10.63,-77.51 31.89,-105.54 21.26,-28.12 50.14,-42.14 86.83,-42.14 30.29,0 54.66,9.03 73,27.19 18.25,18.15 29.63,41.58 34.05,70.36l-38.94 7.43c-7.34,-46.28 -29.54,-69.42 -66.7,-69.42 -23.89,0 -42.24,10.16 -55.13,30.57 -12.88,20.42 -19.28,46.76 -19.28,79.21 0,35.84 6.4,63.6 19.19,83.45 12.7,19.84 30.67,29.72 53.81,29.72 35.84,0 58.51,-23.33 68.11,-69.99zm197.63 105.54c-38.19,0 -68.01,-14.2 -89.46,-42.52 -21.36,-28.32 -32.08,-63.5 -32.08,-105.45 0,-44.4 12.04,-79.86 36.12,-106.29 24.09,-26.53 54,-39.79 89.84,-39.79 38.48,0 68.68,13.92 90.88,41.86 22.1,27.85 33.21,62.65 33.21,104.52 0,43.36 -11.95,78.92 -35.85,106.38 -23.89,27.57 -54.75,41.3 -92.66,41.3zm3.39 -35.56c22.01,0 40.45,-9.12 55.41,-27.37 14.86,-18.25 22.29,-46.66 22.29,-85.23 0,-38.67 -7.81,-66.8 -23.42,-84.2 -15.62,-17.4 -33.96,-26.15 -54.85,-26.15 -21.54,0 -39.7,8.84 -54.65,26.43 -14.87,17.59 -22.3,45.53 -22.3,83.63 0,40.46 7.43,69.34 22.3,86.74 14.95,17.4 33.3,26.15 55.22,26.15zm562.81 27.66l-42.9 0 0 -173.08c0,-17.88 -1.22,-31.24 -3.66,-40.17 -2.54,-8.85 -8.47,-17.03 -17.97,-24.46 -9.5,-7.44 -20.23,-11.2 -32.08,-11.2 -16.46,0 -32.27,7.62 -47.6,22.77 -15.24,15.14 -22.86,38.29 -22.86,69.33l0 156.81 -41.77 0 0 -183.15c0,-24.37 -5.83,-41.68 -17.5,-51.74 -11.66,-10.07 -23.89,-15.15 -36.69,-15.15 -18.34,0 -34.33,7.91 -47.88,23.71 -13.64,15.71 -20.41,35.75 -20.41,59.92l0 166.41 -41.21 0 0 -278.26 37.25 0 0 53.43c20.7,-40.92 49.21,-61.33 85.42,-61.33 19.95,0 36.88,6.58 50.8,19.66 13.93,13.08 22.86,28.79 26.91,47.23 19.09,-44.6 48.45,-66.89 88.05,-66.89 18.91,0 35.47,5.46 49.77,16.27 14.2,10.82 23.51,23.33 27.84,37.35 4.33,14.02 6.49,33.87 6.49,59.46l0 173.08zm53.43 94.26l-36.69 0 227.84 -470.72 36.69 0 -227.84 470.72zm507.7 -94.26l-42.9 0c-1.7,-8.84 -3.39,-25.59 -5.08,-50.14 -19.1,38.66 -51.65,58.04 -97.65,58.04 -31.23,0 -55.22,-8.28 -71.97,-24.83 -16.74,-16.56 -25.11,-36.5 -25.11,-59.65 0,-28.22 11.94,-51.36 35.84,-69.52 23.89,-18.06 64.53,-27.18 121.91,-27.18 7.71,0 20.04,0.37 36.97,1.13 0,-22.02 -1.69,-38.01 -5.08,-47.79 -3.39,-9.79 -10.63,-17.69 -21.64,-23.52 -11.01,-5.93 -25.49,-8.84 -43.46,-8.84 -43.93,0 -69.43,16.74 -76.58,50.23l-40.07 -6.87c9.69,-51.45 50.7,-77.23 122.85,-77.23 38.38,0 65.57,8.47 81.65,25.49 16.09,17.03 24.09,46.48 24.09,88.34l0 118.33c0,19.66 2.07,37.63 6.21,54zm-47.98 -138.84c-17.69,-1.13 -31.05,-1.7 -40.27,-1.7 -34.24,0 -60.77,5.65 -79.77,16.84 -18.91,11.29 -28.41,27.66 -28.41,49.2 0,13.55 5.08,25.22 15.33,34.72 10.16,9.59 24.93,14.39 44.12,14.39 26.16,0 47.61,-9.5 64.35,-28.41 16.84,-19 25.21,-41.2 25.21,-66.79 0,-5.18 -0.19,-11.29 -0.56,-18.25zm354.91 -182.87l0 34.43c-19.47,0 -32.64,2.26 -39.32,6.87 -6.68,4.61 -11.2,12.89 -13.36,24.93 17.78,20.6 26.72,42.99 26.72,67.35 0,25.4 -9.6,47.23 -28.88,65.38 -19.29,18.25 -45.25,27.38 -77.8,27.38 -7.24,0 -13.55,-0.56 -18.91,-1.69 -10.07,-1.98 -16.37,-3.01 -18.91,-3.01 -4.89,0 -10.82,2.44 -17.78,7.33 -6.96,4.8 -10.44,11.1 -10.44,18.72 0,11.01 4.99,18.16 15.05,21.45 10.07,3.3 33.77,5.37 71.03,6.31 31.61,0.94 54.94,3.1 69.99,6.49 15.14,3.38 27.84,10.91 38.28,22.67 10.45,11.66 15.62,25.96 15.62,42.9 0,53.15 -46.47,79.77 -139.5,79.77 -44.12,0 -76.29,-6.68 -96.52,-20.04 -20.22,-13.45 -30.38,-31.23 -30.38,-53.62 0,-27.09 14.11,-45.72 42.42,-55.88 -18.15,-11.95 -27.18,-26.9 -27.18,-44.97 0,-21.44 12.79,-37.91 38.38,-49.29 -24.09,-19.47 -36.13,-44.03 -36.13,-73.66 0,-27.56 10.26,-50.14 30.77,-67.83 20.41,-17.59 45.43,-26.43 74.88,-26.43 20.88,0 39.79,3.95 56.82,11.85 2.73,-18.15 9.12,-30.67 19.09,-37.53 9.88,-6.96 25.03,-10.45 45.35,-10.45 2.07,0 5.64,0.19 10.72,0.57zm-131.31 193.03c18.25,0 33.11,-5.65 44.59,-16.94 11.57,-11.38 17.31,-26.05 17.31,-44.02 0,-18.44 -6.02,-33.49 -17.97,-45.16 -11.95,-11.66 -26.44,-17.49 -43.46,-17.49 -16.18,0 -30.67,5.45 -43.28,16.46 -12.6,10.91 -18.91,26.53 -18.91,46.75 0,17.97 5.65,32.55 17.03,43.75 11.29,11.1 26.15,16.65 44.69,16.65zm-51.84 117.49c-20.13,8.84 -30.2,21.73 -30.2,38.47 0,14.3 8.28,25.31 24.84,33.21 16.56,7.81 37.63,11.76 63.22,11.76 23.7,0 45.43,-3.39 65.19,-10.16 19.75,-6.68 29.63,-18.16 29.63,-34.24 0,-8.66 -2.91,-15.81 -8.75,-21.36 -5.83,-5.55 -13.83,-9.03 -23.98,-10.54 -10.16,-1.41 -27.85,-2.54 -53.06,-3.29 -30.2,-0.75 -52.5,-1.97 -66.89,-3.85zm349.18 -267.07l0 33.87 -66.61 0 0 244.39 -42.89 0 0 -244.39 -47.42 0 0 -33.87 47.42 0c0.75,-44.87 9.31,-73.75 25.77,-86.73 16.47,-12.89 36.6,-19.38 60.3,-19.38 11.67,0 24.93,1.31 39.8,3.95l0 34.43c-9.41,-2.35 -18.44,-3.58 -26.91,-3.58 -19.1,0 -33.21,4.14 -42.33,12.52 -9.13,8.37 -13.74,24.08 -13.74,47.31l0 11.48 66.61 0zm196.23 248.91l0 34.43c-15.34,1.88 -28.6,2.82 -39.8,2.82 -53.99,0 -80.99,-28.13 -80.99,-84.48l0 -167.81 -49.11 0 0 -33.87 49.11 0 1.69 -70.08 41.2 -3.86 0 73.94 62.09 0 0 33.87 -62.09 0 0 174.87c0,28.69 14.77,42.99 44.41,42.99 9.87,0 21.07,-0.94 33.49,-2.82zm221.53 -53.06l40.07 8.28c-7.33,23.71 -21.73,43.27 -42.99,58.8 -21.35,15.52 -46.47,23.23 -75.35,23.23 -38.1,0 -68.86,-13.36 -92.47,-40.17 -23.52,-26.81 -35.28,-61.9 -35.28,-105.35 0,-44.31 12.23,-80.24 36.69,-107.52 24.46,-27.37 55.12,-41.01 92.1,-41.01 36.31,0 65.66,12.6 87.77,37.91 22.1,25.21 33.49,63.03 34.05,113.35l-202.62 0c0,42.05 8.84,70.46 26.52,85.23 17.78,14.67 36.51,22.01 56.26,22.01 35.56,0 60.68,-18.25 75.26,-54.75zm-2.82 -84.66c-0.38,-15.71 -2.92,-29.64 -7.72,-41.77 -4.79,-12.23 -12.98,-22.58 -24.36,-31.14 -11.48,-8.56 -25.21,-12.89 -41.21,-12.89 -21.63,0 -39.88,7.71 -54.93,23.24 -15.06,15.52 -23.43,36.31 -25.31,62.56l153.52 0zm277.41 69.42l38.94 6.87c-5.55,30.86 -17.78,55.03 -36.68,72.53 -19.01,17.4 -42.62,26.15 -70.94,26.15 -38.47,0 -67.82,-14.2 -87.95,-42.52 -20.14,-28.32 -30.2,-62.93 -30.2,-103.86 0,-42.33 10.63,-77.51 31.89,-105.54 21.26,-28.12 50.14,-42.14 86.83,-42.14 30.29,0 54.66,9.03 73,27.19 18.25,18.15 29.63,41.58 34.05,70.36l-38.94 7.43c-7.34,-46.28 -29.54,-69.42 -66.7,-69.42 -23.89,0 -42.24,10.16 -55.13,30.57 -12.88,20.42 -19.28,46.76 -19.28,79.21 0,35.84 6.4,63.6 19.19,83.45 12.7,19.84 30.67,29.72 53.81,29.72 35.84,0 58.51,-23.33 68.11,-69.99zm315.97 97.65l-42.9 0 0 -169.23c0,-19.85 -1.22,-34.71 -3.76,-44.68 -2.45,-9.88 -8.38,-18.54 -17.69,-25.78 -9.22,-7.24 -20.04,-10.91 -32.17,-10.91 -22.3,0 -40.93,9.12 -55.98,27.28 -14.95,18.16 -22.48,42.52 -22.48,73l0 150.32 -42.9 0 0 -376.46 42.9 0 0 149c19.66,-39.13 47.79,-58.7 84.29,-58.7 16.37,0 30.95,3.2 43.74,9.69 12.7,6.4 22.49,14.86 29.35,25.3 6.78,10.54 11.39,20.79 13.83,31.05 2.54,10.16 3.77,27.28 3.77,51.17l0 168.95z"/>
   <path class="fil4" d="M4374.04 1375.07l0 682.35 -137.08 0 0 -79.12c-34.1,59.51 -80.65,89.35 -139.47,89.35 -55.93,0 -100.09,-22.68 -132.3,-68.03 -32.23,-45.53 -48.43,-108.44 -48.43,-188.92 0,-83.72 16.2,-149.35 48.43,-196.76 32.22,-47.4 78.94,-71.1 140.15,-71.1 53.88,0 95.31,21.31 124.46,63.77l0 -231.54 144.24 0zm-144.24 389.59c0,-78.94 -24.22,-118.49 -72.81,-118.49 -57.8,0 -86.79,55.76 -86.79,167.26 0,99.24 27.11,148.85 81.33,148.85 20.81,0 39.05,-9.04 54.74,-26.95 15.68,-17.9 23.53,-43.48 23.53,-76.55l0 -94.13zm681.33 64.63l-324.8 0c-0.34,9.03 -0.51,16.88 -0.51,23.53 0,36.15 9.54,63.43 28.81,81.84 19.1,18.42 42.12,27.63 68.89,27.63 49.62,0 79.46,-26.6 89.52,-79.8l135.03 10.06c-37.68,116.79 -114.06,175.1 -229.33,175.1 -50.3,0 -93.09,-10.06 -128.21,-30.18 -35.12,-20.12 -64.11,-49.45 -86.96,-87.98 -22.85,-38.71 -34.27,-84.92 -34.27,-138.79 0,-80.14 22.85,-144.75 68.71,-194.03 45.7,-49.28 104.53,-73.83 176.47,-73.83 64.97,0 120.54,22.85 166.92,68.38 46.55,45.52 69.74,118.32 69.74,218.07zm-325.31 -85.94l179.02 0c-4.6,-68.89 -33.08,-103.33 -85.25,-103.33 -55.93,0 -87.13,34.44 -93.78,103.33zm758.22 -67.86l-108.43 28.98c-12.62,-45.69 -45.53,-68.54 -98.73,-68.54 -50.13,0 -75.19,15 -75.19,45.18 0,11.94 4.6,21.49 13.81,28.48 9.21,7.16 33.08,13.3 71.78,18.41 57.81,7.85 100.43,16.71 128.22,26.77 27.62,9.89 49.62,26.6 65.81,50.31 16.2,23.53 24.22,52.68 24.22,87.13 0,51.83 -19.78,94.12 -59.17,126.67 -39.56,32.57 -94.8,48.77 -165.73,48.77 -128.55,0 -205.28,-49.79 -230.34,-149.36l124.8 -18.41c10.4,45.01 47.74,67.52 112.35,67.52 24.73,0 45.53,-4.26 62.58,-12.96 17.05,-8.52 25.58,-20.12 25.58,-34.61 -0.17,-22.85 -19.1,-36.49 -56.61,-41.09 -101.97,-13.47 -168.97,-33.42 -201.02,-59.85 -32.23,-26.43 -48.26,-63.26 -48.26,-110.48 0,-47.92 18.59,-87.48 55.93,-118.67 37.34,-31.2 89.69,-46.89 157.03,-46.89 53.2,0 95.83,10.57 127.87,31.55 32.06,20.97 56.44,54.73 73.49,101.11zm508.11 381.92l-144.24 0c-4.78,-20.12 -7.16,-46.55 -7.16,-79.29 -25.24,35.98 -50.47,59.85 -75.54,71.79 -25.06,11.76 -53.71,17.73 -85.6,17.73 -47.23,0 -85.25,-12.79 -114.4,-38.36 -29.15,-25.75 -43.65,-60.02 -43.65,-103.33 0,-31.55 8.53,-60.7 25.41,-87.3 17.05,-26.6 44.33,-47.58 82.01,-62.58 37.52,-15.18 106.05,-26.43 205.63,-33.76l0 -28.99c0,-48.94 -24.38,-73.32 -73.32,-73.32 -52.18,0 -81.33,24.55 -87.3,73.66l-137.08 -12.96c9.03,-57.29 36.15,-97.87 81.5,-121.9 45.36,-24.04 96.68,-35.98 153.96,-35.98 34.45,0 66.67,3.92 97.02,11.94 30.35,8.01 54.05,19.95 71.1,35.97 17.06,16.03 28.48,32.91 34.45,50.65 5.97,17.9 9.03,48.76 9.03,93.09l0 228.65c0,43.82 2.73,75.36 8.19,94.29zm-157.54 -241.43c-104.35,10.23 -156.52,41.6 -156.52,93.95 0,17.56 5.46,32.74 16.54,45.53 10.91,12.78 26.6,19.09 46.89,19.09 26.43,0 48.6,-10.91 66.33,-32.57 17.9,-21.65 26.77,-48.42 26.77,-80.31l0 -45.69zm388.75 -147.31l0 388.74 -145.27 0 0 -388.74 -58.31 0 0 -115.6 58.31 0c0.69,-52.17 4.44,-90.2 11.26,-114.06 6.82,-23.87 24.38,-45.18 52.86,-63.77 28.3,-18.59 66.84,-27.79 115.42,-27.79 20.12,0 42.97,1.87 69.06,5.45l0 114.75c-21.32,-1.71 -38.88,-2.56 -52.86,-2.56 -20.29,0 -33.76,5.45 -40.41,16.2 -6.65,10.74 -10.06,28.3 -10.06,52.51l0 19.27 91.05 0 0 115.6 -91.05 0zm295.65 -115.6l0 504.35 -149.35 0 0 -504.35 149.35 0zm0 -190.28l0 149.36 -149.35 0 0 -149.36 149.35 0zm293.45 180.05c76.73,0 136.57,25.07 179.71,75.37 42.96,50.13 64.45,113.03 64.45,188.57 0,74.51 -22.34,136.57 -67.01,186.36 -44.67,49.62 -104.01,74.51 -178.17,74.51 -71.79,0 -129.07,-24.55 -172.21,-73.83 -42.97,-49.28 -64.45,-112.36 -64.45,-189.6 0,-53.54 9.72,-99.06 29.16,-136.4 19.43,-37.51 46.03,-67.69 79.96,-90.54 33.94,-23.01 76.73,-34.44 128.56,-34.44zm3.92 97.19c-28.13,0 -49.45,10.91 -63.6,32.57 -14.32,21.82 -21.48,65.13 -21.48,129.92 0,59.51 6.82,102.13 20.46,128.04 13.64,25.92 34.78,38.88 63.77,38.88 25.23,0 45.52,-11.09 61.21,-33.08 15.52,-22.17 23.36,-64.28 23.36,-126.34 0,-66.16 -6.82,-110.99 -20.63,-134.52 -13.81,-23.7 -34.78,-35.47 -63.09,-35.47z"/>
   <path class="fil0 str4" d="M6445.06 2925.59c251.94,22.47 449.45,234.08 449.45,491.86 0,272.75 -221.11,493.86 -493.87,493.86 -265.84,0 -482.6,-210.07 -493.4,-473.26 -59.88,-65.97 -96.37,-153.54 -96.37,-249.65 0,-205.2 166.34,-371.54 371.54,-371.54 102.56,0 195.41,41.56 262.64,108.73zm-505.92 315.77c52.89,-138.52 166.32,-247.12 307.97,-293.41 -20.63,-5.54 -42.31,-8.51 -64.69,-8.51 -137.49,0 -248.95,111.45 -248.95,248.95 0,18.18 1.97,35.9 5.67,52.97zm595.86 -170.4c12.29,36.91 18.96,76.39 18.96,117.43 0,205.19 -166.35,371.54 -371.54,371.54 -47.39,0 -92.69,-8.89 -134.35,-25.06 49.15,147.64 188.42,254.11 352.57,254.11 205.2,0 371.54,-166.35 371.54,-371.54 0,-157.81 -98.4,-292.64 -237.18,-346.48zm-148.25 -24.78c28.11,40.32 44.61,89.34 44.61,142.21 0,137.48 -111.45,248.94 -248.94,248.94 -57.21,0 -109.9,-19.31 -151.94,-51.75 15.77,-185.72 168.15,-332.48 356.27,-339.4z"/>
   <path class="fil7 str5" d="M1404.28 3874.68l-208.91 0 0 -730.43 197.05 0 0 134.57c30.38,-101.49 82.98,-152.35 158.04,-152.35 10.62,0 23.46,0.74 39.01,2.22l0 212.61c-43.95,0 -78.03,6.67 -102.48,20.25 -24.2,13.58 -44.2,38.03 -59.51,73.09 -15.56,35.07 -23.21,82.24 -23.21,141.74l0 298.3zm943.29 -330.39l-470.41 0c-0.49,13.09 -0.74,24.45 -0.74,34.08 0,52.35 13.83,91.86 41.73,118.52 27.66,26.67 61,40 99.77,40 71.86,0 115.06,-38.52 129.63,-115.56l195.57 14.57c-54.57,169.15 -165.19,253.61 -332.12,253.61 -72.84,0 -134.82,-14.57 -185.69,-43.71 -50.87,-29.14 -92.85,-71.62 -125.93,-127.42 -33.09,-56.05 -49.64,-122.96 -49.64,-201 0,-116.05 33.09,-209.65 99.52,-281.01 66.18,-71.37 151.37,-106.92 255.58,-106.92 94.09,0 174.58,33.09 241.75,99.02 67.42,65.94 101,171.37 101,315.83zm-471.15 -124.45l259.28 0c-6.67,-99.77 -47.91,-149.64 -123.46,-149.64 -81,0 -126.18,49.88 -135.81,149.64zm1225.53 454.85l-208.91 0c-6.91,-29.14 -10.37,-67.42 -10.37,-114.82 -36.55,52.11 -73.09,86.68 -109.39,103.96 -36.3,17.04 -77.78,25.69 -123.95,25.69 -68.41,0 -123.46,-18.52 -165.69,-55.57 -42.23,-37.28 -63.22,-86.92 -63.22,-149.63 0,-45.69 12.35,-87.92 36.79,-126.43 24.7,-38.52 64.21,-68.9 118.78,-90.63 54.32,-21.98 153.59,-38.28 297.8,-48.89l0 -41.98c0,-70.88 -35.31,-106.18 -106.18,-106.18 -75.56,0 -117.78,35.56 -126.42,106.67l-198.53 -18.77c13.08,-82.97 52.35,-141.74 118.02,-176.55 65.69,-34.82 140.01,-52.11 222.99,-52.11 49.88,0 96.55,5.68 140.5,17.29 43.95,11.6 78.28,28.89 102.97,52.1 24.7,23.21 41.24,47.66 49.89,73.34 8.64,25.93 13.08,70.63 13.08,134.83l0 331.13c0,63.46 3.96,109.14 11.86,136.55zm-228.17 -349.65c-151.12,14.81 -226.68,60.25 -226.68,136.05 0,25.44 7.9,47.42 23.95,65.94 15.8,18.52 38.52,27.65 67.91,27.65 38.28,0 70.38,-15.8 96.06,-47.16 25.93,-31.36 38.77,-70.13 38.77,-116.3l0 -66.18zm1017.85 76.05c-8.14,85.94 -42.22,155.57 -102.48,208.66 -60,53.1 -137.54,79.77 -232.61,79.77 -103.22,0 -187.17,-34.08 -252.12,-102.24 -64.95,-68.16 -97.3,-159.27 -97.3,-273.36 0,-114.32 33.09,-206.93 99.52,-277.8 66.18,-71.12 154.83,-106.67 265.95,-106.67 89.15,0 163.22,26.67 221.75,80.01 58.52,53.34 91.12,120.01 97.29,200.26l-201.49 11.61c-6.67,-86.93 -44.7,-130.38 -113.83,-130.38 -85.2,0 -127.66,69.89 -127.66,209.4 0,92.85 11.85,151.86 35.8,176.8 23.71,24.95 52.6,37.54 86.68,37.54 66.43,0 105.93,-41.98 119.02,-125.93l201.49 12.34zm341.02 -289.4l0 308.91c0,38.77 5.68,64.46 17.28,77.54 11.36,13.09 38.28,19.51 80.75,19.51 19.51,0 42.23,-0.98 67.91,-2.96l0 160.26c-62.72,10.62 -107.66,16.05 -135.07,16.05 -89.64,0 -153.34,-17.29 -190.87,-51.86 -37.54,-34.33 -56.31,-96.8 -56.31,-187.17l0 -340.27 -115.56 0 0 -167.42 127.42 0 17.78 -215.33 186.68 -14.32 0 229.65 155.56 0 0 167.42 -155.56 0z"/>
   <path class="fil3" d="M16382.46 2336.63l5083.08 0c280.69,0.01 508.32,224.26 508.32,500.8l-0.01 1053.32c0.01,276.52 -227.62,500.77 -508.3,500.77l-5083.09 0.02c-280.67,-0.02 -508.3,-224.27 -508.3,-500.8l-0.01 -1053.33c0.01,-276.52 227.64,-500.77 508.32,-500.77l-0.01 -0.01z"/>
   <path class="fil5" d="M14946.11 2336.61l1432.69 0c224.51,0 406.57,175.67 406.57,392.3l-0.01 1270.34c0.01,216.62 -182.05,392.29 -406.55,392.29l-1432.7 0.01c-224.49,-0.01 -406.55,-175.68 -406.55,-392.31l-0.02 -1270.33c0.02,-216.63 182.08,-392.3 406.58,-392.3z"/>
   <polygon class="fil0" points="17388.93,3403.36 17388.93,3198.74 16823.86,3409.02 16822.73,3408.59 16822.73,3409.43 16822.73,3617.76 16822.73,3618.6 16823.86,3618.18 17388.93,3828.45 17388.93,3623.83 17098.96,3513.59 "/>
   <g>
    <polygon class="fil0 str3" points="21084.61,2980.45 20752.42,4046.73 20949.66,4046.73 21281.85,2980.45 "/>
    <polygon class="fil0" points="21275.92,3828.37 21275.92,3623.75 21565.67,3513.6 21275.92,3403.44 21275.92,3198.82 21840.78,3409.02 21842.13,3408.52 21842.13,3409.52 21842.13,3617.69 21842.13,3618.69 21840.78,3618.19 "/>
   </g>
   <path class="fil6" d="M15976.19 5680.51c-21.82,0 -40.73,-5.55 -56.72,-16.65 -15.99,-11.1 -23.99,-29.45 -23.99,-55.04 0,-30.85 15.99,-51.92 47.98,-63.21 -9.03,-4.89 -16.47,-11.2 -22.3,-18.91 -5.83,-7.72 -8.75,-16.65 -8.75,-26.81 0,-14.68 5.18,-25.78 15.53,-33.3 10.34,-7.53 21.73,-12.8 34.14,-15.81 -12.41,-9.03 -22.2,-20.13 -29.35,-33.3 -7.15,-13.17 -10.72,-27.66 -10.72,-43.46 0,-31.61 10.72,-56.16 32.17,-73.66 21.45,-17.5 50.8,-26.25 88.05,-26.25 20.7,0 39.52,3.39 56.45,10.16 24.46,-11.66 38.76,-28.79 42.9,-51.36l47.41 0c0,17.68 -5.18,32.92 -15.52,45.72 -10.35,12.79 -24.37,21.26 -42.05,25.4 21.07,18.81 31.6,42.14 31.6,69.99 0,31.61 -10.81,56.16 -32.45,73.66 -21.64,17.49 -51.08,26.24 -88.34,26.24l-47.41 0c-10.16,0 -17.97,2.26 -23.42,6.78 -5.46,4.51 -8.19,10.34 -8.19,17.49 0,7.15 2.73,12.99 8.19,17.5 5.45,4.52 13.26,6.77 23.42,6.77l119.09 0c23.33,0 41.77,7.06 55.31,21.17 13.55,14.11 20.32,31.14 20.32,51.08 0,14.3 -3.2,28.04 -9.59,41.21 -6.4,13.17 -16.65,23.89 -30.76,32.17 -14.12,8.28 -31.9,12.42 -53.34,12.42l-119.66 0zm66.61 -244.96c23.33,0 41.01,-5.36 53.06,-16.09 12.04,-10.72 18.06,-25.87 18.06,-45.43 0,-19.57 -6.02,-34.72 -18.06,-45.44 -12.05,-10.72 -29.73,-16.09 -53.06,-16.09 -23.33,0 -41.02,5.37 -53.06,16.09 -12.04,10.72 -18.06,25.87 -18.06,45.44 0,19.56 6.02,34.71 18.06,45.43 12.04,10.73 29.73,16.09 53.06,16.09zm54.19 204.88c12.41,0 22.76,-3.38 31.04,-10.16 8.28,-6.77 12.42,-15.8 12.42,-27.09 0,-11.29 -3.3,-20.23 -9.88,-26.81 -6.59,-6.59 -15.33,-9.88 -26.25,-9.88l-123.6 0c-10.91,0 -19.57,3.29 -25.96,9.88 -6.4,6.58 -9.6,15.52 -9.6,26.81 0,11.29 3.2,20.32 9.6,27.09 6.39,6.78 15.05,10.16 25.96,10.16l116.27 0zm139.97 -470.72l49.67 0 0 55.31 -49.67 0 0 -55.31zm0 111.18l49.67 0 0 296.89 -49.67 0 0 -296.89zm192.47 303.1c-20.32,0 -35.19,-6.02 -44.59,-18.06 -9.41,-12.04 -14.12,-26.91 -14.12,-44.59l0 -199.24 -36.12 0 0 -41.21 36.69 0 10.72 -82.4 38.38 0 0 82.4 50.24 0 0 41.21 -50.24 0 0 194.72c0,17.69 8.28,26.53 24.84,26.53l25.4 0 0 32.74c-4.89,2.25 -11.29,4.14 -19.19,5.64 -7.9,1.51 -15.24,2.26 -22.01,2.26zm89.74 -414.28l49.67 0 0 144.49 3.95 0c20.7,-26.72 51.93,-40.08 93.7,-40.08 61.71,0 92.56,33.68 92.56,101.04l0 202.62 -49.67 0 0 -199.24c0,-23.7 -5.26,-40.17 -15.8,-49.39 -10.54,-9.22 -25.78,-13.82 -45.72,-13.82 -14.3,0 -27.47,3.48 -39.51,10.44 -12.04,6.96 -21.64,17.02 -28.79,30.2 -7.15,13.17 -10.72,28.59 -10.72,46.28l0 175.53 -49.67 0 0 -408.07zm404.68 414.84c-29.72,0 -52.58,-7.99 -68.58,-23.99 -15.99,-15.99 -23.99,-41.67 -23.99,-77.04l0 -202.63 49.67 0 0 199.24c0,23.71 5.27,40.17 15.81,49.39 10.54,9.22 25.78,13.83 45.72,13.83 14.3,0 27.47,-3.48 39.51,-10.44 12.04,-6.96 21.64,-17.03 28.79,-30.2 7.15,-13.17 10.72,-28.6 10.72,-46.28l0 -175.54 49.67 0 0 296.89 -37.82 0 -5.64 -40.08 -3.95 0c-21.83,31.24 -55.13,46.85 -99.91,46.85zm361.79 0c-19.57,0 -37.35,-3.95 -53.34,-11.85 -15.99,-7.9 -28.88,-19.57 -38.66,-35l-3.39 0 -6.21 40.08 -37.25 0 0 -408.07 49.67 0 0 145.05 3.38 0c9.79,-14.3 22.02,-24.65 36.69,-31.04 14.68,-6.4 32.55,-9.6 53.63,-9.6 34.99,0 62.55,12.89 82.69,38.67 20.13,25.77 30.19,64.62 30.19,116.54 0,53.06 -10.16,92.19 -30.48,117.4 -20.32,25.21 -49.29,37.81 -86.92,37.81zm-12.42 -41.2c19.19,0 34.43,-3.58 45.72,-10.73 11.29,-7.14 19.57,-18.81 24.84,-34.99 5.27,-16.18 7.9,-38.19 7.9,-66.04l0 -2.26c0,-28.22 -2.63,-50.61 -7.9,-67.17 -5.27,-16.55 -13.64,-28.5 -25.12,-35.84 -11.48,-7.34 -26.62,-11 -45.44,-11 -26.34,0 -45.72,9.59 -58.14,28.78 -12.41,19.19 -18.62,47.6 -18.62,85.23l0 2.26c0,36.88 6.11,64.72 18.34,83.54 12.23,18.81 31.71,28.22 58.42,28.22zm200.93 -26.53l56.45 0 0 60.96 -56.45 0 0 -60.96zm256.25 67.73c-45.16,0 -78.27,-12.51 -99.35,-37.53 -21.07,-25.03 -31.6,-64.25 -31.6,-117.68 0,-53.06 10.63,-92.19 31.89,-117.39 21.26,-25.21 54.28,-37.82 99.06,-37.82 40.64,0 70.36,9.78 89.18,29.35 18.81,19.57 28.22,48.73 28.22,87.49l-50.8 0c0,-26.72 -4.8,-46 -14.39,-57.85 -9.6,-11.86 -27,-17.78 -52.21,-17.78 -27.47,0 -47.61,8.93 -60.4,26.81 -12.79,17.87 -19.19,46.94 -19.19,87.2l0 2.26c0,39.89 6.21,68.49 18.63,85.79 12.41,17.31 32.73,25.97 60.96,25.97 24.83,0 42.61,-6.3 53.34,-18.91 10.72,-12.61 16.08,-31.51 16.08,-56.73l47.98 0c0,33.87 -9.6,61.81 -28.79,83.82 -19.19,22.02 -48.73,33.02 -88.61,33.02zm288.41 0c-45.53,0 -79.77,-12.7 -102.72,-38.1 -22.96,-25.4 -34.43,-64.44 -34.43,-117.11 0,-52.68 11.47,-91.72 34.43,-117.11 22.95,-25.4 57.19,-38.1 102.72,-38.1 45.54,0 79.78,12.7 102.73,38.1 22.96,25.4 34.43,64.44 34.43,117.11 0,52.68 -11.47,91.72 -34.43,117.11 -22.95,25.4 -57.19,38.1 -102.73,38.1zm0 -41.2c30.11,0 51.93,-8.75 65.48,-26.25 13.55,-17.49 20.32,-46 20.32,-85.51l0 -4.52c0,-39.51 -6.77,-68.01 -20.32,-85.51 -13.55,-17.5 -35.37,-26.24 -65.48,-26.24 -30.1,0 -51.92,8.74 -65.47,26.24 -13.55,17.5 -20.32,46 -20.32,85.51l0 4.52c0,39.51 6.77,68.02 20.32,85.51 13.55,17.5 35.37,26.25 65.47,26.25zm194.73 -262.46l37.81 0 5.65 40.08 3.95 0c20.32,-31.23 50.05,-46.85 89.18,-46.85 38.38,0 63.97,15.62 76.77,46.85l3.38 0c10.16,-15.05 23.43,-26.62 39.8,-34.71 16.36,-8.09 33.77,-12.14 52.21,-12.14 58.32,0 87.48,29.92 87.48,89.75l0 213.91 -49.67 0 0 -204.88c0,-21.45 -4.7,-36.41 -14.11,-44.87 -9.4,-8.47 -22.39,-12.7 -38.94,-12.7 -19.95,0 -36.69,7.9 -50.24,23.7 -13.55,15.81 -20.32,36.88 -20.32,63.22l0 175.53 -49.67 0 0 -204.88c0,-21.45 -4.51,-36.41 -13.55,-44.87 -9.03,-8.47 -21.82,-12.7 -38.38,-12.7 -12.79,0 -24.65,3.48 -35.56,10.44 -10.91,6.96 -19.66,17.02 -26.24,30.2 -6.59,13.17 -9.88,28.59 -9.88,46.28l0 175.53 -49.67 0 0 -296.89zm549.17 -117.95l39.51 0 -115.7 442.5 -40.08 0 116.27 -442.5zm158.59 421.61c-25.59,0 -48.35,-6.02 -68.29,-18.06 -19.95,-12.04 -29.92,-33.87 -29.92,-65.47 0,-38.01 16.93,-64.07 50.8,-78.18 33.87,-14.11 82.78,-21.17 146.74,-21.17l0 -32.73c0,-17.31 -4.89,-30.58 -14.67,-39.8 -9.79,-9.22 -27.47,-13.82 -53.06,-13.82 -24.08,0 -41.3,4.51 -51.65,13.54 -10.34,9.03 -15.52,20.13 -15.52,33.3l0 6.78 -47.97 0c-0.38,-2.26 -0.57,-6.4 -0.57,-12.42 0,-26.34 10.91,-46.66 32.74,-60.96 21.82,-14.3 50.99,-21.45 87.49,-21.45 36.87,0 64.91,7.72 84.1,23.14 19.19,15.43 28.78,37.26 28.78,65.48l0 160.85c0,6.78 1.89,11.76 5.65,14.96 3.76,3.2 8.47,4.8 14.11,4.8l22.58 0 0 32.17c-9.79,4.52 -22.58,6.78 -38.38,6.78 -12.8,0 -23.52,-3.86 -32.18,-11.58 -8.65,-7.71 -14.48,-17.96 -17.5,-30.76l-3.95 0c-10.16,13.93 -23.98,24.84 -41.48,32.74 -17.5,7.9 -36.79,11.85 -57.86,11.85zm12.98 -41.2c14.68,0 28.6,-3.01 41.77,-9.03 13.17,-6.02 23.9,-14.96 32.18,-26.81 8.27,-11.86 12.41,-26.25 12.41,-43.18l0 -21.45c-48.54,0 -84.94,3.86 -109.21,11.57 -24.27,7.71 -36.4,22.3 -36.4,43.74 0,16.18 4.98,27.76 14.96,34.72 9.97,6.96 24.74,10.44 44.3,10.44zm273.18 137.15c-21.82,0 -40.73,-5.55 -56.72,-16.65 -15.99,-11.1 -23.99,-29.45 -23.99,-55.04 0,-30.85 15.99,-51.92 47.98,-63.21 -9.03,-4.89 -16.47,-11.2 -22.3,-18.91 -5.83,-7.72 -8.75,-16.65 -8.75,-26.81 0,-14.68 5.18,-25.78 15.53,-33.3 10.34,-7.53 21.73,-12.8 34.14,-15.81 -12.41,-9.03 -22.2,-20.13 -29.35,-33.3 -7.15,-13.17 -10.72,-27.66 -10.72,-43.46 0,-31.61 10.72,-56.16 32.17,-73.66 21.45,-17.5 50.8,-26.25 88.05,-26.25 20.7,0 39.52,3.39 56.45,10.16 24.46,-11.66 38.76,-28.79 42.9,-51.36l47.41 0c0,17.68 -5.18,32.92 -15.52,45.72 -10.35,12.79 -24.37,21.26 -42.05,25.4 21.07,18.81 31.6,42.14 31.6,69.99 0,31.61 -10.81,56.16 -32.45,73.66 -21.64,17.49 -51.08,26.24 -88.34,26.24l-47.41 0c-10.16,0 -17.97,2.26 -23.42,6.78 -5.46,4.51 -8.19,10.34 -8.19,17.49 0,7.15 2.73,12.99 8.19,17.5 5.45,4.52 13.26,6.77 23.42,6.77l119.09 0c23.33,0 41.77,7.06 55.31,21.17 13.55,14.11 20.32,31.14 20.32,51.08 0,14.3 -3.2,28.04 -9.59,41.21 -6.4,13.17 -16.65,23.89 -30.76,32.17 -14.12,8.28 -31.9,12.42 -53.34,12.42l-119.66 0zm66.61 -244.96c23.33,0 41.01,-5.36 53.06,-16.09 12.04,-10.72 18.06,-25.87 18.06,-45.43 0,-19.57 -6.02,-34.72 -18.06,-45.44 -12.05,-10.72 -29.73,-16.09 -53.06,-16.09 -23.33,0 -41.02,5.37 -53.06,16.09 -12.04,10.72 -18.06,25.87 -18.06,45.44 0,19.56 6.02,34.71 18.06,45.43 12.04,10.73 29.73,16.09 53.06,16.09zm54.19 204.88c12.41,0 22.76,-3.38 31.04,-10.16 8.28,-6.77 12.42,-15.8 12.42,-27.09 0,-11.29 -3.3,-20.23 -9.88,-26.81 -6.59,-6.59 -15.33,-9.88 -26.25,-9.88l-123.6 0c-10.91,0 -19.57,3.29 -25.96,9.88 -6.4,6.58 -9.6,15.52 -9.6,26.81 0,11.29 3.2,20.32 9.6,27.09 6.39,6.78 15.05,10.16 25.96,10.16l116.27 0zm150.69 -318.32l-43.46 0 0 -41.21 43.46 0 0 -47.41c0,-19.57 4.89,-35.84 14.68,-48.82 9.78,-12.98 26.34,-19.48 49.67,-19.48 7.52,0 15.14,0.66 22.86,1.98 7.71,1.32 14.2,2.92 19.47,4.8l0 34.43 -29.35 0c-18.44,0 -27.66,9.03 -27.66,27.09l0 47.41 57.01 0 0 41.21 -57.01 0 0 255.68 -49.67 0 0 -255.68zm213.35 261.89c-20.32,0 -35.19,-6.02 -44.59,-18.06 -9.41,-12.04 -14.12,-26.91 -14.12,-44.59l0 -199.24 -36.12 0 0 -41.21 36.69 0 10.72 -82.4 38.38 0 0 82.4 50.24 0 0 41.21 -50.24 0 0 194.72c0,17.69 8.28,26.53 24.84,26.53l25.4 0 0 32.74c-4.89,2.25 -11.29,4.14 -19.19,5.64 -7.9,1.51 -15.24,2.26 -22.01,2.26zm215.6 0.56c-47.79,0 -83.35,-12.6 -106.67,-37.81 -23.33,-25.22 -35,-64.35 -35,-117.4 0,-53.06 11.67,-92.19 35,-117.39 23.33,-25.21 58.89,-37.82 106.67,-37.82 42.9,0 74.97,11.38 96.23,34.15 21.27,22.77 31.9,59.36 31.9,109.77l0 24.84 -218.43 0c1.88,34.24 10.06,59.55 24.55,75.92 14.49,16.36 36.41,24.55 65.76,24.55 23.7,0 42.9,-5.46 57.57,-16.37 14.68,-10.91 22.01,-27.66 22.01,-50.23l48.55 0c0,34.61 -11.95,61.24 -35.85,79.86 -23.89,18.63 -54.65,27.94 -92.28,27.94zm76.2 -182.87c0,-57.57 -25.4,-86.35 -76.2,-86.35 -28.22,0 -49.39,6.77 -63.5,20.32 -14.11,13.54 -22.67,35.55 -25.68,66.03l165.37 0zm224.64 182.87c-45.16,0 -78.27,-12.51 -99.35,-37.53 -21.07,-25.03 -31.6,-64.25 -31.6,-117.68 0,-53.06 10.63,-92.19 31.89,-117.39 21.26,-25.21 54.28,-37.82 99.06,-37.82 40.64,0 70.36,9.78 89.18,29.35 18.81,19.57 28.22,48.73 28.22,87.49l-50.8 0c0,-26.72 -4.8,-46 -14.39,-57.85 -9.6,-11.86 -27,-17.78 -52.21,-17.78 -27.47,0 -47.61,8.93 -60.4,26.81 -12.79,17.87 -19.19,46.94 -19.19,87.2l0 2.26c0,39.89 6.21,68.49 18.63,85.79 12.41,17.31 32.73,25.97 60.96,25.97 24.83,0 42.61,-6.3 53.34,-18.91 10.72,-12.61 16.08,-31.51 16.08,-56.73l47.98 0c0,33.87 -9.6,61.81 -28.79,83.82 -19.19,22.02 -48.73,33.02 -88.61,33.02zm169.32 -414.84l49.67 0 0 144.49 3.95 0c20.7,-26.72 51.93,-40.08 93.7,-40.08 61.71,0 92.56,33.68 92.56,101.04l0 202.62 -49.67 0 0 -199.24c0,-23.7 -5.26,-40.17 -15.8,-49.39 -10.54,-9.22 -25.78,-13.82 -45.72,-13.82 -14.3,0 -27.47,3.48 -39.51,10.44 -12.04,6.96 -21.64,17.02 -28.79,30.2 -7.15,13.17 -10.72,28.59 -10.72,46.28l0 175.53 -49.67 0 0 -408.07z"/>
   <path class="fil0 str4" d="M15754.82 2925.59c251.94,22.47 449.45,234.08 449.45,491.86 0,272.75 -221.11,493.86 -493.87,493.86 -265.84,0 -482.6,-210.07 -493.4,-473.26 -59.88,-65.97 -96.37,-153.54 -96.37,-249.65 0,-205.2 166.34,-371.54 371.54,-371.54 102.56,0 195.41,41.56 262.64,108.73zm-505.92 315.77c52.89,-138.52 166.32,-247.12 307.97,-293.41 -20.63,-5.54 -42.31,-8.51 -64.69,-8.51 -137.49,0 -248.95,111.45 -248.95,248.95 0,18.18 1.97,35.9 5.67,52.97zm595.86 -170.4c12.29,36.91 18.96,76.39 18.96,117.43 0,205.19 -166.35,371.54 -371.54,371.54 -47.39,0 -92.69,-8.89 -134.35,-25.06 49.15,147.64 188.42,254.11 352.57,254.11 205.2,0 371.54,-166.35 371.54,-371.54 0,-157.81 -98.4,-292.64 -237.18,-346.48zm-148.25 -24.78c28.11,40.32 44.61,89.34 44.61,142.21 0,137.48 -111.45,248.94 -248.94,248.94 -57.21,0 -109.9,-19.31 -151.94,-51.75 15.77,-185.72 168.15,-332.48 356.27,-339.4z"/>
   <path class="fil7 str5" d="M17744.19 3874.68l-208.91 0 0 -730.43 197.05 0 0 134.57c30.38,-101.49 82.98,-152.35 158.04,-152.35 10.62,0 23.46,0.74 39.01,2.22l0 212.61c-43.95,0 -78.03,6.67 -102.48,20.25 -24.2,13.58 -44.2,38.03 -59.51,73.09 -15.56,35.07 -23.21,82.24 -23.21,141.74l0 298.3zm943.29 -330.39l-470.41 0c-0.49,13.09 -0.74,24.45 -0.74,34.08 0,52.35 13.83,91.86 41.73,118.52 27.66,26.67 61,40 99.77,40 71.86,0 115.06,-38.52 129.63,-115.56l195.57 14.57c-54.57,169.15 -165.19,253.61 -332.12,253.61 -72.84,0 -134.82,-14.57 -185.69,-43.71 -50.87,-29.14 -92.85,-71.62 -125.93,-127.42 -33.09,-56.05 -49.64,-122.96 -49.64,-201 0,-116.05 33.09,-209.65 99.52,-281.01 66.18,-71.37 151.37,-106.92 255.58,-106.92 94.09,0 174.58,33.09 241.75,99.02 67.42,65.94 101,171.37 101,315.83zm-471.15 -124.45l259.28 0c-6.67,-99.77 -47.91,-149.64 -123.46,-149.64 -81,0 -126.18,49.88 -135.81,149.64zm1225.53 454.85l-208.91 0c-6.91,-29.14 -10.37,-67.42 -10.37,-114.82 -36.55,52.11 -73.09,86.68 -109.39,103.96 -36.3,17.04 -77.78,25.69 -123.95,25.69 -68.41,0 -123.46,-18.52 -165.69,-55.57 -42.23,-37.28 -63.22,-86.92 -63.22,-149.63 0,-45.69 12.35,-87.92 36.79,-126.43 24.7,-38.52 64.21,-68.9 118.78,-90.63 54.32,-21.98 153.59,-38.28 297.8,-48.89l0 -41.98c0,-70.88 -35.31,-106.18 -106.18,-106.18 -75.56,0 -117.78,35.56 -126.42,106.67l-198.53 -18.77c13.08,-82.97 52.35,-141.74 118.02,-176.55 65.69,-34.82 140.01,-52.11 222.99,-52.11 49.88,0 96.55,5.68 140.5,17.29 43.95,11.6 78.28,28.89 102.97,52.1 24.7,23.21 41.24,47.66 49.89,73.34 8.64,25.93 13.08,70.63 13.08,134.83l0 331.13c0,63.46 3.96,109.14 11.86,136.55zm-228.17 -349.65c-151.12,14.81 -226.68,60.25 -226.68,136.05 0,25.44 7.9,47.42 23.95,65.94 15.8,18.52 38.52,27.65 67.91,27.65 38.28,0 70.38,-15.8 96.06,-47.16 25.93,-31.36 38.77,-70.13 38.77,-116.3l0 -66.18zm1017.85 76.05c-8.14,85.94 -42.22,155.57 -102.48,208.66 -60,53.1 -137.54,79.77 -232.61,79.77 -103.22,0 -187.17,-34.08 -252.12,-102.24 -64.95,-68.16 -97.3,-159.27 -97.3,-273.36 0,-114.32 33.09,-206.93 99.52,-277.8 66.18,-71.12 154.83,-106.67 265.95,-106.67 89.15,0 163.22,26.67 221.75,80.01 58.52,53.34 91.12,120.01 97.29,200.26l-201.49 11.61c-6.67,-86.93 -44.7,-130.38 -113.83,-130.38 -85.2,0 -127.66,69.89 -127.66,209.4 0,92.85 11.85,151.86 35.8,176.8 23.71,24.95 52.6,37.54 86.68,37.54 66.43,0 105.93,-41.98 119.02,-125.93l201.49 12.34zm341.02 -289.4l0 308.91c0,38.77 5.68,64.46 17.28,77.54 11.36,13.09 38.28,19.51 80.75,19.51 19.51,0 42.23,-0.98 67.91,-2.96l0 160.26c-62.72,10.62 -107.66,16.05 -135.07,16.05 -89.64,0 -153.34,-17.29 -190.87,-51.86 -37.54,-34.33 -56.31,-96.8 -56.31,-187.17l0 -340.27 -115.56 0 0 -167.42 127.42 0 17.78 -215.33 186.68 -14.32 0 229.65 155.56 0 0 167.42 -155.56 0z"/>
   <path class="fil4" d="M15571.86 1375.07l0 682.35 -137.08 0 0 -79.12c-34.1,59.51 -80.65,89.35 -139.47,89.35 -55.93,0 -100.09,-22.68 -132.3,-68.03 -32.23,-45.53 -48.43,-108.44 -48.43,-188.92 0,-83.72 16.2,-149.35 48.43,-196.76 32.22,-47.4 78.94,-71.1 140.15,-71.1 53.88,0 95.31,21.31 124.46,63.77l0 -231.54 144.24 0zm-144.24 389.59c0,-78.94 -24.22,-118.49 -72.81,-118.49 -57.8,0 -86.79,55.76 -86.79,167.26 0,99.24 27.11,148.85 81.33,148.85 20.81,0 39.05,-9.04 54.74,-26.95 15.68,-17.9 23.53,-43.48 23.53,-76.55l0 -94.13zm681.33 64.63l-324.8 0c-0.34,9.03 -0.51,16.88 -0.51,23.53 0,36.15 9.54,63.43 28.81,81.84 19.1,18.42 42.12,27.63 68.89,27.63 49.62,0 79.46,-26.6 89.52,-79.8l135.03 10.06c-37.68,116.79 -114.06,175.1 -229.33,175.1 -50.3,0 -93.09,-10.06 -128.21,-30.18 -35.12,-20.12 -64.11,-49.45 -86.96,-87.98 -22.85,-38.71 -34.27,-84.92 -34.27,-138.79 0,-80.14 22.85,-144.75 68.71,-194.03 45.7,-49.28 104.53,-73.83 176.47,-73.83 64.97,0 120.54,22.85 166.92,68.38 46.55,45.52 69.74,118.32 69.74,218.07zm-325.31 -85.94l179.02 0c-4.6,-68.89 -33.08,-103.33 -85.25,-103.33 -55.93,0 -87.13,34.44 -93.78,103.33zm758.22 -67.86l-108.43 28.98c-12.62,-45.69 -45.53,-68.54 -98.73,-68.54 -50.13,0 -75.19,15 -75.19,45.18 0,11.94 4.6,21.49 13.81,28.48 9.21,7.16 33.08,13.3 71.78,18.41 57.81,7.85 100.43,16.71 128.22,26.77 27.62,9.89 49.62,26.6 65.81,50.31 16.2,23.53 24.22,52.68 24.22,87.13 0,51.83 -19.78,94.12 -59.17,126.67 -39.56,32.57 -94.8,48.77 -165.73,48.77 -128.55,0 -205.28,-49.79 -230.34,-149.36l124.8 -18.41c10.4,45.01 47.74,67.52 112.35,67.52 24.73,0 45.53,-4.26 62.58,-12.96 17.05,-8.52 25.58,-20.12 25.58,-34.61 -0.17,-22.85 -19.1,-36.49 -56.61,-41.09 -101.97,-13.47 -168.97,-33.42 -201.02,-59.85 -32.23,-26.43 -48.26,-63.26 -48.26,-110.48 0,-47.92 18.59,-87.48 55.93,-118.67 37.34,-31.2 89.69,-46.89 157.03,-46.89 53.2,0 95.83,10.57 127.87,31.55 32.06,20.97 56.44,54.73 73.49,101.11zm508.11 381.92l-144.24 0c-4.78,-20.12 -7.16,-46.55 -7.16,-79.29 -25.24,35.98 -50.47,59.85 -75.54,71.79 -25.06,11.76 -53.71,17.73 -85.6,17.73 -47.23,0 -85.25,-12.79 -114.4,-38.36 -29.15,-25.75 -43.65,-60.02 -43.65,-103.33 0,-31.55 8.53,-60.7 25.41,-87.3 17.05,-26.6 44.33,-47.58 82.01,-62.58 37.52,-15.18 106.05,-26.43 205.63,-33.76l0 -28.99c0,-48.94 -24.38,-73.32 -73.32,-73.32 -52.18,0 -81.33,24.55 -87.3,73.66l-137.08 -12.96c9.03,-57.29 36.15,-97.87 81.5,-121.9 45.36,-24.04 96.68,-35.98 153.96,-35.98 34.45,0 66.67,3.92 97.02,11.94 30.35,8.01 54.05,19.95 71.1,35.97 17.06,16.03 28.48,32.91 34.45,50.65 5.97,17.9 9.03,48.76 9.03,93.09l0 228.65c0,43.82 2.73,75.36 8.19,94.29zm-157.54 -241.43c-104.35,10.23 -156.52,41.6 -156.52,93.95 0,17.56 5.46,32.74 16.54,45.53 10.91,12.78 26.6,19.09 46.89,19.09 26.43,0 48.6,-10.91 66.33,-32.57 17.9,-21.65 26.77,-48.42 26.77,-80.31l0 -45.69zm388.75 -147.31l0 388.74 -145.27 0 0 -388.74 -58.31 0 0 -115.6 58.31 0c0.69,-52.17 4.44,-90.2 11.26,-114.06 6.82,-23.87 24.38,-45.18 52.86,-63.77 28.3,-18.59 66.84,-27.79 115.42,-27.79 20.12,0 42.97,1.87 69.06,5.45l0 114.75c-21.32,-1.71 -38.88,-2.56 -52.86,-2.56 -20.29,0 -33.76,5.45 -40.41,16.2 -6.65,10.74 -10.06,28.3 -10.06,52.51l0 19.27 91.05 0 0 115.6 -91.05 0zm295.65 -115.6l0 504.35 -149.35 0 0 -504.35 149.35 0zm0 -190.28l0 149.36 -149.35 0 0 -149.36 149.35 0zm293.45 180.05c76.73,0 136.57,25.07 179.71,75.37 42.96,50.13 64.45,113.03 64.45,188.57 0,74.51 -22.34,136.57 -67.01,186.36 -44.67,49.62 -104.01,74.51 -178.17,74.51 -71.79,0 -129.07,-24.55 -172.21,-73.83 -42.97,-49.28 -64.45,-112.36 -64.45,-189.6 0,-53.54 9.72,-99.06 29.16,-136.4 19.43,-37.51 46.03,-67.69 79.96,-90.54 33.94,-23.01 76.73,-34.44 128.56,-34.44zm3.92 97.19c-28.13,0 -49.45,10.91 -63.6,32.57 -14.32,21.82 -21.48,65.13 -21.48,129.92 0,59.51 6.82,102.13 20.46,128.04 13.64,25.92 34.78,38.88 63.77,38.88 25.23,0 45.52,-11.09 61.21,-33.08 15.52,-22.17 23.36,-64.28 23.36,-126.34 0,-66.16 -6.82,-110.99 -20.63,-134.52 -13.81,-23.7 -34.78,-35.47 -63.09,-35.47z"/>
  </g>
 </g>
</svg>
